<svg xmlns="http://www.w3.org/2000/svg" width="263" height="50" viewBox="0 0 263 50" fill="none" class="max-w-full"><g clip-path="url(#clip0_1633_4518)"><path d="M247.715 43.2496C247.859 43.2496 248.682 43.1159 248.899 43.0747C252.912 42.4573 255.855 40.6874 257.47 35.7893C258.571 32.4552 262.975 18.9442 262.975 18.9442H258.304L254.568 31.7041H253.817L250.987 18.9442H246.141L250.864 35.6761H253.406C253.406 35.6761 253.303 36.0054 253.231 36.2729C252.685 38.1354 249.794 39.3908 247.118 39.751L247.715 43.2496ZM201.883 35.6761V22.7207C202.377 22.5561 203.611 22.3503 205.011 22.3503C205.741 22.3503 206.904 22.4017 207.501 22.4738V18.6973C207.038 18.5635 205.772 18.5223 204.61 18.5223C201.677 18.5223 198.878 19.2838 197.417 19.9835V35.6658H201.883V35.6761ZM246.1 35.6761L246.254 32.2906C246.079 32.3318 245.595 32.4347 245.143 32.4347C243.63 32.4347 243.187 31.4571 243.187 30.1091V11.772L238.722 13.7786V30.9632C238.722 33.4225 239.946 35.8819 243.476 35.8819C244.875 35.8819 245.914 35.6967 246.089 35.6658M236.921 35.6658L237.075 32.2803C236.9 32.3215 236.417 32.4244 235.964 32.4244C234.451 32.4244 234.009 31.4468 234.009 30.0988V11.772L229.543 13.7786V30.9632C229.543 33.4225 230.767 35.8819 234.297 35.8819C235.696 35.8819 236.736 35.6967 236.91 35.6658M220.899 35.6658V18.9237L225.365 18.9442V35.6658H220.899ZM223.101 16.9582C221.732 16.9582 220.703 16.4231 220.703 14.4989C220.703 12.729 221.64 11.9984 223.101 11.9984C224.562 11.9984 225.571 12.5643 225.571 14.4577C225.571 16.3511 224.675 16.9582 223.101 16.9582ZM190.81 25.4373V25.0669C190.81 22.8031 189.812 21.774 187.363 21.774C184.914 21.774 183.875 23.1426 183.813 25.4373H190.81ZM188.773 32.3626C191.284 32.3626 192.838 31.807 193.609 31.5703L194.042 34.9043C193.393 35.2027 191.253 36.098 188.495 36.098C182.434 36.098 179.296 32.9903 179.296 27.0014C179.296 21.0126 182.3 18.4915 187.487 18.4915C193.146 18.4915 194.947 21.6197 194.947 26.9191C194.947 27.4851 194.916 28.2877 194.844 28.5861H183.751C183.751 31.6114 185.974 32.3832 188.773 32.3832M168.687 35.6761V28.3186H169.746L175.138 35.6761H180.129L173.194 25.9518L179.502 18.9545H174.624L169.623 24.5833H168.676V11.772L164.21 13.7786V35.6658H168.676L168.687 35.6761ZM214.55 35.8819C216.33 35.8819 217.483 35.604 217.668 35.5526L217.863 32.126C217.709 32.1877 216.845 32.4347 216.299 32.4347C214.251 32.4347 213.603 30.9735 213.603 29.0492V22.9265H218.378V18.9648H213.603V15.3941L209.189 17.4007V30.3046C209.189 34.1428 211.195 35.8922 214.54 35.8922M156.75 28.6787C155.947 28.5553 154.465 28.3392 153.241 28.3392C150.349 28.3392 150.102 29.5328 150.102 30.5824C150.102 32.2803 150.874 32.908 153.354 32.908C154.98 32.908 156.153 32.6508 156.75 32.4861V28.689V28.6787ZM153.087 36.098C147.458 36.098 145.883 34.3383 145.883 30.6853C145.883 27.0323 147.509 25.3036 152.943 25.3036C154.651 25.3036 156.246 25.5608 156.75 25.6329V24.5215C156.75 23.1838 156.04 22.2062 152.479 22.2062C149.65 22.2062 148.044 23.0089 147.489 23.2352L147.149 19.7777C147.89 19.4896 150.236 18.5223 153.755 18.5223C159.045 18.5223 161.154 20.7759 161.154 25.1183V34.8426C159.888 35.4085 156.637 36.1185 153.097 36.1185M135.254 32.517C138.722 32.517 139.792 30.5516 139.792 27.341C139.792 24.1305 138.68 22.2577 135.254 22.2577C134.256 22.2577 133.35 22.4532 132.29 22.7825V31.9819C133.062 32.2391 134.163 32.5067 135.254 32.5067M127.824 13.8094L132.29 11.8028V19.2529C133.453 18.8825 134.379 18.5223 136.705 18.5223C141.757 18.5223 144.216 21.2184 144.216 27.341C144.216 34.5236 141.397 36.1391 134.924 36.1391C131.827 36.1391 129.162 35.604 127.835 35.0072V13.7786L127.824 13.8094Z" fill="white"></path><path d="M128.751 43.6201H128.082V49.8868H128.751V43.6201Z" fill="white"></path><path d="M130.727 49.8868V43.6304H131.622C133.968 47.623 134.41 48.3947 134.637 48.8887C134.637 48.1992 134.637 47.3863 134.637 43.6304H135.275V49.8868H134.482C131.931 45.4723 131.653 44.9681 131.365 44.433C131.365 45.2356 131.385 46.3984 131.385 49.8868H130.737H130.727Z" fill="white"></path><path d="M136.757 43.6201V44.2272H138.722V49.8868H139.391V44.2272H141.377V43.6201H136.757Z" fill="white"></path><path d="M142.849 43.6201V49.8868H146.563V49.2797H143.517V46.9233H146.162V46.3161H143.517V44.2272H146.43V43.6201H142.849Z" fill="white"></path><path d="M149.763 46.594C150.298 46.594 150.638 46.5426 150.885 46.4397C151.245 46.2853 151.471 45.9457 151.471 45.3798C151.471 44.7109 151.245 44.4742 150.895 44.3302C150.689 44.2376 150.319 44.1758 149.753 44.1758C149.29 44.1758 148.94 44.1758 148.755 44.1964V46.5837H149.763V46.594ZM148.086 49.8869V43.651C148.508 43.6202 149.547 43.6099 149.671 43.6099C150.37 43.6099 150.916 43.6819 151.245 43.8157C151.914 44.0832 152.14 44.6183 152.14 45.3695C152.14 46.2441 151.739 46.8204 150.957 47.0468L150.916 47.0674L152.449 49.8869L151.718 49.9075L150.268 47.1703C150.093 47.1703 149.907 47.1908 149.702 47.1908H148.734V49.9075H148.065L148.086 49.8869Z" fill="white"></path><path d="M153.921 49.8868V43.6304H154.816C157.162 47.623 157.605 48.3947 157.831 48.8887C157.831 48.1992 157.831 47.3863 157.831 43.6304H158.469V49.8868H157.677C155.125 45.4723 154.847 44.9681 154.559 44.433C154.559 45.2356 154.579 46.3984 154.579 49.8868H153.931H153.921Z" fill="white"></path><path d="M163.501 47.3245C162.843 45.4003 162.678 44.8755 162.493 44.2786C162.297 44.8858 162.102 45.4312 161.443 47.3245H163.511H163.501ZM160.548 49.9074L159.858 49.8765L162.081 43.6304H162.884L165.096 49.8765L164.376 49.9074L163.676 47.9214H161.248L160.548 49.9074Z" fill="white"></path><path d="M165.147 43.6201V44.2272H167.113V49.8868H167.782V44.2272H169.768V43.6201H165.147Z" fill="white"></path><path d="M171.908 43.6201H171.239V49.8868H171.908V43.6201Z" fill="white"></path><path d="M176.168 44.1037C174.974 44.1037 174.316 44.5461 174.316 46.7174C174.316 49.0121 174.944 49.4031 176.148 49.4031C177.351 49.4031 178.01 49.0532 178.01 46.7277C178.01 44.4021 177.506 44.1037 176.178 44.1037M176.137 49.9999C174.45 49.9999 173.637 49.3311 173.637 46.7174C173.637 44.1037 174.738 43.5068 176.209 43.5068C177.897 43.5068 178.71 43.9802 178.71 46.7071C178.71 49.434 177.897 49.9999 176.137 49.9999Z" fill="white"></path><path d="M180.429 49.8868V43.6304H181.324C183.67 47.623 184.113 48.3947 184.339 48.8887C184.339 48.1992 184.339 47.3863 184.339 43.6304H184.977V49.8868H184.185C181.633 45.4723 181.355 44.9681 181.067 44.433C181.067 45.2356 181.087 46.3984 181.087 49.8868H180.439H180.429Z" fill="white"></path><path d="M190.008 47.3245C189.349 45.4003 189.185 44.8755 189 44.2786C188.804 44.8858 188.608 45.4312 187.95 47.3245H190.018H190.008ZM187.055 49.9074L186.365 49.8765L188.588 43.6304H189.391L191.603 49.8765L190.883 49.9074L190.183 47.9214H187.754L187.055 49.9074Z" fill="white"></path><path d="M192.992 43.6201V49.8868H196.697V49.2797H193.661V43.6201H192.992Z" fill="white"></path><path d="M131.385 3.82814C130.768 2.02736 130.613 1.53343 130.438 0.977763C130.253 1.54372 130.068 2.05823 129.451 3.82814H131.385ZM128.617 6.24634L127.969 6.21547L130.058 0.360352H130.809L132.887 6.21547L132.219 6.24634L131.56 4.38381H129.286L128.627 6.24634H128.617Z" fill="white"></path><path d="M134.102 6.23572V2.3769C134.595 2.14023 135.326 1.97559 136.17 1.97559C136.962 1.97559 137.24 2.16081 137.364 2.4901C137.425 2.68561 137.436 2.97373 137.436 3.30302V6.22543H136.849V3.40592C136.849 3.18983 136.828 2.94286 136.787 2.83996C136.715 2.62387 136.53 2.51068 136.016 2.51068C135.594 2.51068 135.059 2.58271 134.688 2.70619V6.22543H134.102V6.23572Z" fill="white"></path><path d="M141.552 2.09905H142.139V6.2357H141.552V2.09905ZM141.84 1.14206C141.624 1.14206 141.449 1.05974 141.449 0.740745C141.449 0.44233 141.604 0.318848 141.84 0.318848C142.077 0.318848 142.242 0.411459 142.242 0.730455C142.242 1.02887 142.087 1.14206 141.84 1.14206Z" fill="white"></path><path d="M143.764 6.23572V2.3769C144.258 2.14023 144.988 1.97559 145.832 1.97559C146.624 1.97559 146.902 2.16081 147.026 2.4901C147.087 2.68561 147.098 2.97373 147.098 3.30302V6.22543H146.511V3.40592C146.511 3.18983 146.491 2.94286 146.449 2.83996C146.377 2.62387 146.192 2.51068 145.678 2.51068C145.256 2.51068 144.721 2.58271 144.35 2.70619V6.22543H143.764V6.23572Z" fill="white"></path><path d="M151.451 2.63421C151.173 2.56218 150.864 2.51073 150.525 2.51073C149.413 2.51073 149.146 2.99437 149.146 4.2189C149.146 5.29937 149.423 5.83446 150.329 5.83446C150.741 5.83446 151.152 5.7933 151.451 5.70069V2.63421ZM150.308 6.33868C149.094 6.33868 148.549 5.80359 148.549 4.24977C148.549 2.46957 149.187 1.97564 150.514 1.97564C150.844 1.97564 151.224 2.03738 151.451 2.10941V0.0205078H152.037V6.04026C151.595 6.23578 150.977 6.33868 150.298 6.33868" fill="white"></path><path d="M156.339 3.81749V3.67343C156.339 2.92225 156.164 2.49006 155.32 2.49006C154.333 2.49006 154.127 3.0766 154.096 3.8072H156.329L156.339 3.81749ZM155.485 5.81379C155.938 5.81379 156.329 5.74176 156.679 5.65944L156.771 6.14307C156.36 6.29743 155.753 6.34888 155.382 6.34888C153.983 6.34888 153.479 5.69031 153.479 4.17765C153.479 2.66499 154.106 1.98584 155.362 1.98584C156.524 1.98584 156.895 2.59296 156.895 3.8072C156.895 3.98214 156.895 4.19823 156.874 4.31142H154.086C154.086 5.5874 154.6 5.82408 155.475 5.82408" fill="white"></path><path d="M159.817 5.81382C160.938 5.81382 161.196 5.40222 161.196 4.11594C161.196 3.02518 160.98 2.51068 160.115 2.51068C159.673 2.51068 159.271 2.593 158.901 2.71648V5.66976C159.086 5.7315 159.467 5.81382 159.817 5.81382ZM158.314 8.17028V2.3769C158.85 2.12994 159.621 1.97559 160.177 1.97559C161.288 1.97559 161.803 2.51068 161.803 4.07478C161.803 5.90644 161.185 6.32833 159.858 6.32833C159.549 6.32833 159.138 6.2563 158.901 6.17398V8.17028H158.314Z" fill="white"></path><path d="M165.919 3.81749V3.67343C165.919 2.92225 165.744 2.49006 164.901 2.49006C163.913 2.49006 163.707 3.0766 163.676 3.8072H165.909L165.919 3.81749ZM165.065 5.81379C165.518 5.81379 165.909 5.74176 166.259 5.65944L166.351 6.14307C165.94 6.29743 165.333 6.34888 164.962 6.34888C163.563 6.34888 163.059 5.69031 163.059 4.17765C163.059 2.66499 163.686 1.98584 164.942 1.98584C166.104 1.98584 166.475 2.59296 166.475 3.8072C166.475 3.98214 166.475 4.19823 166.454 4.31142H163.666C163.666 5.5874 164.18 5.82408 165.055 5.82408" fill="white"></path><path d="M167.885 6.23572V2.3769C168.379 2.14023 169.109 1.97559 169.953 1.97559C170.745 1.97559 171.023 2.16081 171.147 2.4901C171.209 2.68561 171.219 2.97373 171.219 3.30302V6.22543H170.632V3.40592C170.632 3.18983 170.612 2.94286 170.571 2.83996C170.498 2.62387 170.313 2.51068 169.799 2.51068C169.377 2.51068 168.842 2.58271 168.471 2.70619V6.22543H167.885V6.23572Z" fill="white"></path><path d="M175.571 2.63421C175.293 2.56218 174.985 2.51073 174.645 2.51073C173.534 2.51073 173.266 2.99437 173.266 4.2189C173.266 5.29937 173.544 5.83446 174.45 5.83446C174.861 5.83446 175.273 5.7933 175.571 5.70069V2.63421ZM174.429 6.33868C173.215 6.33868 172.68 5.80359 172.68 4.24977C172.68 2.46957 173.318 1.97564 174.645 1.97564C174.974 1.97564 175.355 2.03738 175.582 2.10941V0.0205078H176.168V6.04026C175.726 6.23578 175.108 6.33868 174.429 6.33868Z" fill="white"></path><path d="M180.459 3.81749V3.67343C180.459 2.92225 180.284 2.49006 179.441 2.49006C178.453 2.49006 178.247 3.0766 178.216 3.8072H180.449L180.459 3.81749ZM179.605 5.81379C180.058 5.81379 180.449 5.74176 180.799 5.65944L180.891 6.14307C180.48 6.29743 179.873 6.34888 179.502 6.34888C178.103 6.34888 177.599 5.69031 177.599 4.17765C177.599 2.66499 178.226 1.98584 179.482 1.98584C180.645 1.98584 181.015 2.59296 181.015 3.8072C181.015 3.98214 181.015 4.19823 180.994 4.31142H178.206C178.206 5.5874 178.72 5.82408 179.595 5.82408" fill="white"></path><path d="M182.425 6.23572V2.3769C182.919 2.14023 183.649 1.97559 184.493 1.97559C185.285 1.97559 185.563 2.16081 185.687 2.4901C185.749 2.68561 185.759 2.97373 185.759 3.30302V6.22543H185.172V3.40592C185.172 3.18983 185.152 2.94286 185.111 2.83996C185.039 2.62387 184.853 2.51068 184.339 2.51068C183.917 2.51068 183.382 2.58271 183.011 2.70619V6.22543H182.425V6.23572Z" fill="white"></path><path d="M187.981 5.90657C187.765 5.64932 187.724 5.33032 187.724 4.7232V2.64459H187.045V2.13008L187.734 2.09921C187.734 2.09921 187.755 1.07019 187.765 0.967285H188.331V2.09921H189.432V2.64459H188.331V4.74378C188.331 5.10394 188.362 5.36119 188.455 5.49497C188.588 5.69048 188.897 5.76251 189.525 5.82425L189.484 6.2976C188.681 6.27702 188.228 6.1947 187.992 5.90657" fill="white"></path><path d="M192.972 6.23572V2.3769C193.507 2.12994 194.207 1.97559 194.979 1.97559C195.596 1.97559 195.843 2.11965 195.977 2.29458C196.419 2.09907 197.037 1.97559 197.654 1.97559C198.405 1.97559 198.632 2.1711 198.755 2.4901C198.827 2.68561 198.827 2.97373 198.827 3.30302V6.22543H198.241V3.40592C198.241 3.18983 198.22 2.94286 198.179 2.83996C198.107 2.62387 197.953 2.51068 197.459 2.51068C197.047 2.51068 196.522 2.60329 196.152 2.72677C196.193 2.85025 196.203 3.1178 196.203 3.35447V6.22543H195.606V3.40592C195.606 3.18983 195.586 2.94286 195.545 2.83996C195.473 2.62387 195.329 2.51068 194.824 2.51068C194.413 2.51068 193.929 2.58271 193.548 2.70619V6.22543H192.962L192.972 6.23572Z" fill="white"></path><path d="M203.139 3.81749V3.67343C203.139 2.92225 202.964 2.49006 202.12 2.49006C201.132 2.49006 200.927 3.0766 200.896 3.8072H203.129L203.139 3.81749ZM202.285 5.81379C202.738 5.81379 203.129 5.74176 203.479 5.65944L203.571 6.14307C203.16 6.29743 202.552 6.34888 202.182 6.34888C200.783 6.34888 200.278 5.69031 200.278 4.17765C200.278 2.66499 200.906 1.98584 202.161 1.98584C203.324 1.98584 203.695 2.59296 203.695 3.8072C203.695 3.98214 203.695 4.19823 203.674 4.31142H200.885C200.885 5.5874 201.4 5.82408 202.275 5.82408" fill="white"></path><path d="M205.114 6.23572V2.3769C205.649 2.12994 206.349 1.97559 207.12 1.97559C207.738 1.97559 207.985 2.11965 208.119 2.29458C208.561 2.09907 209.178 1.97559 209.796 1.97559C210.547 1.97559 210.773 2.1711 210.897 2.4901C210.969 2.68561 210.969 2.97373 210.969 3.30302V6.22543H210.382V3.40592C210.382 3.18983 210.362 2.94286 210.321 2.83996C210.249 2.62387 210.094 2.51068 209.6 2.51068C209.189 2.51068 208.664 2.60329 208.293 2.72677C208.335 2.85025 208.345 3.1178 208.345 3.35447V6.22543H207.748V3.40592C207.748 3.18983 207.728 2.94286 207.686 2.83996C207.614 2.62387 207.47 2.51068 206.966 2.51068C206.554 2.51068 206.071 2.58271 205.69 2.70619V6.22543H205.104L205.114 6.23572Z" fill="white"></path><path d="M214.139 5.81388C215.281 5.81388 215.507 5.3714 215.507 4.16745C215.507 3.07669 215.332 2.51073 214.406 2.51073C213.995 2.51073 213.562 2.59305 213.223 2.74741V5.66982C213.449 5.74185 213.851 5.81388 214.149 5.81388M212.626 0.0205078H213.213V2.26377C213.532 2.1197 213.984 1.97564 214.643 1.97564C215.662 1.97564 216.114 2.60334 216.114 4.116C216.114 5.94765 215.466 6.33868 214.149 6.33868C213.593 6.33868 212.955 6.20491 212.626 6.05055V0.0205078Z" fill="white"></path><path d="M220.231 3.81749V3.67343C220.231 2.92225 220.056 2.49006 219.212 2.49006C218.224 2.49006 218.018 3.0766 217.988 3.8072H220.22L220.231 3.81749ZM219.377 5.81379C219.829 5.81379 220.22 5.74176 220.57 5.65944L220.663 6.14307C220.251 6.29743 219.644 6.34888 219.274 6.34888C217.874 6.34888 217.37 5.69031 217.37 4.17765C217.37 2.66499 217.998 1.98584 219.253 1.98584C220.416 1.98584 220.786 2.59296 220.786 3.8072C220.786 3.98214 220.786 4.19823 220.766 4.31142H217.977C217.977 5.5874 218.492 5.82408 219.366 5.82408" fill="white"></path><path d="M222.196 6.23565V2.37683C222.484 2.22248 223.102 1.99609 223.843 1.99609C223.997 1.99609 224.234 1.99609 224.347 2.02696L224.306 2.56205C224.172 2.56205 223.997 2.54147 223.884 2.54147C223.38 2.54147 222.937 2.65467 222.783 2.71641V6.22536H222.196V6.23565Z" fill="white"></path><path d="M229.481 2.52093C228.699 2.52093 228.246 2.78847 228.246 4.13649C228.246 5.57711 228.606 5.81379 229.45 5.81379C230.294 5.81379 230.675 5.62856 230.675 4.16736C230.675 2.70615 230.366 2.52093 229.481 2.52093ZM229.44 6.34888C228.205 6.34888 227.649 5.91669 227.649 4.16736C227.649 2.41803 228.411 1.98584 229.491 1.98584C230.716 1.98584 231.282 2.27397 231.282 4.13649C231.282 5.88582 230.726 6.34888 229.44 6.34888Z" fill="white"></path><path d="M233.041 6.23585V2.64458H232.362V2.13007L233.041 2.0992V1.51266C233.041 0.926117 233.186 0.627701 233.402 0.411607C233.71 0.133772 234.173 0.0514509 234.935 0L234.976 0.493929C234.256 0.55567 233.957 0.637991 233.782 0.864375C233.69 0.977567 233.628 1.1525 233.628 1.52295V2.0992H234.729V2.64458H233.628V6.23585H233.031H233.041Z" fill="white"></path><path d="M34.6162 35.4806V19.4382C35.1101 19.1912 37.5386 17.8638 41.4077 17.8638C45.0608 17.8638 46.7483 19.1706 47.0879 19.4587C47.6024 19.1398 49.4958 17.8638 52.1918 17.8638C58.4689 17.8638 60.0535 21.7843 60.0535 25.3859V35.4806H55.495V24.6862C55.495 23.9556 55.6391 21.7535 51.9243 21.7535C50.5557 21.7535 49.3518 22.268 49.1357 22.3503C49.2386 22.659 49.6399 23.7703 49.6399 25.6946V35.4806H45.0813V24.3466C45.0813 22.6281 43.8156 21.7535 41.6856 21.7535C40.389 21.7535 39.4217 22.1342 39.1851 22.1959V35.4703H34.6265L34.6162 35.4806Z" fill="white"></path><path d="M64.2207 35.4807V13.1202L68.7998 11.0312V18.718C69.0777 18.5842 70.4463 17.9154 72.7513 17.9154C77.0731 17.9154 79.5942 20.56 79.5942 24.7378V35.4807H75.0357V24.4496C75.0357 22.7312 73.8112 21.7536 71.6708 21.7536C69.9523 21.7536 69.088 22.1241 68.7998 22.1961V35.4704H64.2207V35.4807Z" fill="white"></path><path d="M93.5896 28.2981C92.7664 28.1643 91.2537 27.9482 89.988 27.9482C87.0244 27.9482 86.7775 29.4608 86.7775 30.2429C86.7775 31.6115 87.5698 32.6199 90.1115 32.6199C91.7785 32.6199 92.9825 32.3524 93.5896 32.1877V28.2981ZM89.8337 35.9025C84.0609 35.9025 82.4453 33.3197 82.4453 30.3561C82.4453 27.1558 84.1123 24.8303 89.6793 24.8303C91.4286 24.8303 93.0648 25.0978 93.5896 25.1595V24.3363C93.5896 22.9677 92.8693 21.6403 89.206 21.6403C86.3041 21.6403 84.6577 22.4635 84.0917 22.6899L83.7419 19.1398C84.4931 18.8414 86.4276 17.8535 90.0395 17.8535C95.4624 17.8535 98.107 20.7759 98.107 25.2316V34.5854C96.8104 35.1616 93.4764 35.8922 89.8439 35.8922" fill="white"></path><path d="M18.9339 1.05985C17.8329 0.51447 16.135 0.288086 14.4989 0.288086C7.06936 0.288086 0 4.47619 0 11.525C0 14.0152 0.792344 16.6803 2.17123 19.0677C3.73534 21.7637 5.89627 24.2333 8.47911 25.9827C10.4342 27.3101 12.7084 28.2362 15.0545 28.2362C17.0097 28.2362 18.3165 27.7011 18.7796 27.3307C18.5841 27.3616 18.1107 27.4336 17.5242 27.4336C11.3501 27.4336 7.15168 21.9386 5.57728 17.946C4.97016 16.4128 4.51739 14.5606 4.51739 12.7289C4.51739 5.21708 11.2369 1.09072 17.802 1.09072C18.1725 1.09072 18.5429 1.10101 18.9134 1.13188C18.9442 1.13188 18.9648 1.12159 18.9648 1.10101C18.9648 1.09072 18.9648 1.07014 18.9442 1.07014M20.0864 12.2247C16.845 12.2247 14.149 14.6429 14.149 17.8534C14.149 20.8376 16.5878 23.6674 20.1585 23.6674C20.9817 23.6674 21.8049 23.4822 22.5561 23.1426C22.6796 23.0808 22.8545 23.0294 22.9677 22.9368C23.0603 22.8647 23.1015 22.731 23.1632 22.6281C24.1099 21.0331 25.1801 17.3904 25.3344 15.3426C25.355 15.1368 25.2933 15.0545 25.1698 14.8899C24.326 13.7476 22.6899 12.2144 20.107 12.2144M25.4682 12.4717C25.4682 12.7495 25.4682 13.3463 25.4579 13.6139C24.254 11.4838 21.8975 10.2593 19.469 10.2593C15.9189 10.2593 12.6775 13.3669 12.6775 17.483C12.6775 21.5991 15.9292 24.4391 19.5822 24.4391C20.5804 24.4391 21.5785 24.223 22.4943 23.7806C22.1033 24.3774 21.6608 24.9537 21.1772 25.4682C20.9611 25.7048 20.7244 25.993 20.426 26.1062C20.0761 26.2296 19.3558 26.528 18.0593 26.528C13.7271 26.528 10.7738 23.3175 9.39494 21.2492C8.01605 19.1911 6.82239 16.4231 6.82239 13.4698C6.82239 7.57353 11.7205 4.53793 17.1023 4.53793C22.9574 4.53793 25.4785 9.19938 25.4785 12.4717" fill="white"></path><path d="M112.862 0.288086V50" stroke="white"></path></g><defs><clipPath id="clip0_1633_4518"><rect width="262.966" height="50" fill="white"></rect></clipPath></defs></svg>