<svg xmlns="http://www.w3.org/2000/svg" width="160" height="65" viewBox="0 0 160 65" fill="none"><g clip-path="url(#clip0_9235_25330)"><path d="M24.8737 2.73219e-08C19.9543 -0.000230498 15.1454 1.45831 11.055 4.19118C6.96457 6.92405 3.7764 10.8085 1.89366 15.3533C0.0109175 19.8981 -0.481842 24.8992 0.477693 29.7241C1.43723 34.5489 3.80596 38.9809 7.28435 42.4595C10.7627 45.9382 15.1946 48.3072 20.0194 49.2671C24.8442 50.227 29.8452 49.7346 34.3902 47.8521C38.9351 45.9697 42.8198 42.7818 45.553 38.6916C48.2861 34.6014 49.745 29.7925 49.7451 24.8732C49.7453 18.2766 47.125 11.9502 42.4607 7.28563C37.7965 2.62102 31.4702 0.000309146 24.8737 2.73219e-08ZM24.8737 41.4109C15.9197 41.4109 8.6614 34.007 8.6614 24.8728C8.6614 15.7385 15.9183 8.3347 24.8737 8.3347C33.8291 8.3347 41.086 15.7389 41.086 24.8728C41.086 34.0067 33.8265 41.4109 24.8737 41.4109Z" fill="#1C1F2A"></path><path d="M98.2263 18.0343H90.4285V49.3011H98.2263V18.0343Z" fill="#A4A5AA"></path><path d="M94.3273 4.26459C93.4022 4.26463 92.4979 4.53899 91.7287 5.05298C90.9596 5.56696 90.3601 6.2975 90.0061 7.15219C89.6521 8.00688 89.5595 8.94735 89.74 9.85467C89.9205 10.762 90.3661 11.5954 91.0202 12.2495C91.6744 12.9036 92.5078 13.3491 93.4152 13.5295C94.3225 13.7099 95.263 13.6173 96.1176 13.2632C96.9723 12.9092 97.7028 12.3096 98.2167 11.5404C98.7306 10.7712 99.0049 9.86687 99.0049 8.94177C99.0048 7.70127 98.5119 6.51161 97.6347 5.63448C96.7575 4.75735 95.5678 4.26459 94.3273 4.26459Z" fill="#A4A5AA"></path><path d="M77.2564 20.7896C75.2749 18.7791 72.5415 17.5912 68.9629 17.5912C60.1654 17.5912 53.0336 24.7856 53.0336 33.6648C53.0336 42.544 60.1654 49.745 68.9629 49.745C72.5415 49.745 75.274 48.5499 77.2564 46.5397V48.4267C77.2564 53.0996 73.5781 56.8877 68.9485 56.8877C67.8281 56.8885 66.7185 56.6674 65.6839 56.2373C64.6493 55.8072 63.7101 55.1766 62.9204 54.3817L57.4344 59.8671C60.4942 62.908 64.6346 64.612 68.9485 64.606C71.0692 64.6045 73.1688 64.1844 75.1268 63.3699C77.0848 62.5554 78.8629 61.3624 80.359 59.8593C81.855 58.3563 83.0398 56.5727 83.8452 54.6109C84.6506 52.6491 85.0609 50.5476 85.0526 48.4269V18.0352H77.2564V20.7896ZM69.1117 41.8862C67.4764 41.9012 65.8736 41.43 64.5067 40.5323C63.1397 39.6347 62.0703 38.3512 61.4341 36.8447C60.798 35.3382 60.6238 33.6767 60.9337 32.071C61.2435 30.4653 62.0235 28.9879 63.1745 27.8263C64.3256 26.6647 65.7958 25.8713 67.3986 25.5468C69.0014 25.2223 70.6644 25.3813 72.1767 26.0037C73.6889 26.626 74.9822 27.6837 75.8922 29.0424C76.8023 30.4011 77.2881 31.9995 77.288 33.6348C77.2931 34.7135 77.0855 35.7827 76.6773 36.7812C76.2691 37.7797 75.6682 38.688 74.909 39.4542C74.1497 40.2205 73.247 40.8297 72.2523 41.247C71.2575 41.6644 70.1904 41.8817 69.1117 41.8866V41.8862Z" fill="#A4A5AA"></path><path d="M155.042 17.5912C151.195 17.5912 148.53 18.9681 146.749 21.2582V18.0352H138.952V49.3011H146.749V33.6352C146.749 27.9419 149.558 25.4324 153.581 25.4324C154.707 25.4324 156.083 25.7448 157.228 26.1318L160.001 18.8261C158.466 18.0339 156.768 17.6111 155.042 17.5912Z" fill="#A4A5AA"></path><path d="M118.82 17.5912C109.884 17.5912 102.641 24.7902 102.641 33.6686C102.641 42.5471 109.885 49.745 118.82 49.745C121.249 49.7489 123.647 49.2062 125.838 48.157C128.028 47.1078 129.954 45.579 131.473 43.6841L125.215 39.2938C124.416 40.2049 123.433 40.9362 122.331 41.4398C121.228 41.9434 120.032 42.2077 118.82 42.2153C115.043 42.2153 112.062 40.045 110.894 36.8011H134.339C134.544 35.7698 134.647 34.7209 134.647 33.6694C134.647 24.7902 127.755 17.5912 118.82 17.5912ZM110.894 30.5372C112.063 27.2931 115.043 25.1228 118.82 25.1228C122.597 25.1228 125.369 27.2931 126.442 30.5372H110.894Z" fill="#A4A5AA"></path></g><defs><clipPath id="clip0_9235_25330"><rect width="160" height="64.6058" fill="white"></rect></clipPath></defs></svg>