<?xml version="1.0" encoding="UTF-8"?>
<svg id="Layer_1" data-name="Layer 1" xmlns="http://www.w3.org/2000/svg" viewBox="0 0 474.78 530.11">
  <defs>
    <style>
      .cls-1 {
        fill: #e19600;
        stroke-width: 0px;
      }
    </style>
  </defs>
  <g>
    <polygon class="cls-1" points="396.97 172.99 159.58 35.9 120.67 58.37 396.98 217.85 396.97 172.99"/>
    <polygon class="cls-1" points="198.51 426.84 237.41 449.31 474.78 312.27 474.78 267.33 198.51 426.84"/>
    <polygon class="cls-1" points="77.8 447.1 116.76 469.59 116.76 150.46 77.83 172.97 77.8 447.1"/>
  </g>
  <g>
    <path class="cls-1" d="m445.59,111.17L266.56,7.81c-17.98-10.41-40.35-10.41-58.38,0l-9.71,5.58,227.65,131.46c6.03,3.49,9.76,9.91,9.76,16.84v83.14l38.9-22.47v-60.67c0-20.77-11.21-40.15-29.19-50.51Z"/>
    <path class="cls-1" d="m227.65,488.62l-71.98-41.55v44.93l52.5,30.34c9.02,5.18,19.13,7.77,29.19,7.77s20.18-2.59,29.19-7.77l179.03-103.37c17.98-10.41,29.19-29.79,29.19-50.56v-11.21l-227.65,131.41c-6.03,3.49-13.5,3.49-19.48,0Z"/>
    <path class="cls-1" d="m29.19,111.17C11.16,121.53,0,140.91,0,161.69v206.73c0,20.82,11.16,40.15,29.19,50.56l9.71,5.63V161.69c0-6.92,3.74-13.35,9.71-16.84l71.98-41.6-38.86-22.42-52.55,30.34Z"/>
  </g>
</svg>