<?xml version="1.0" encoding="UTF-8"?>
<svg id="Layer_1" data-name="Layer 1" xmlns="http://www.w3.org/2000/svg" viewBox="0 0 1460.07 427.92">
  <defs>
    <style>
      .cls-1 {
        fill: #131313;
        stroke-width: 0px;
      }
    </style>
  </defs>
  <path class="cls-1" d="m165.13,121.81c0-38.86,28.89-67.01,68.25-67.01s68.25,28.15,68.25,67.01-28.64,67-68.25,67-68.25-28.39-68.25-67Zm101.13,0c0-20.93-13.95-34.87-32.88-34.87s-32.88,13.95-32.88,34.87,14.2,34.87,32.88,34.87,32.88-14.2,32.88-34.87Z"/>
  <path class="cls-1" d="m455.56,121.81c0,38.86-28.4,67-63.02,67-12.95,0-25.16-3.98-34.62-11.7v63.02h-34.87V57.79h34.87v8.72c9.47-7.72,21.67-11.71,34.62-11.71,34.63,0,63.02,27.9,63.02,67.01Zm-35.37,0c0-21.17-13.95-34.87-33.38-34.87-10.96,0-21.18,4.48-28.9,13.2v43.09c7.72,8.97,17.94,13.45,28.9,13.45,19.42,0,33.38-13.7,33.38-34.87Z"/>
  <path class="cls-1" d="m602.26,57.79v128.03h-34.88v-8.47c-9.46,7.47-21.42,11.46-34.37,11.46-34.87,0-63.27-28.14-63.27-67s28.4-67.01,63.27-67.01c12.95,0,24.91,3.99,34.37,11.46v-8.47h34.88Zm-34.88,85.69v-43.59c-7.72-8.72-18.18-12.95-28.89-12.95-19.18,0-33.38,13.7-33.38,34.87s14.2,34.87,33.38,34.87c10.71,0,21.17-4.23,28.89-13.2Z"/>
  <path class="cls-1" d="m829.91,107.6v78.21h-34.88v-70.74c0-19.18-8.22-28.15-20.67-28.15-8.97,0-18.43,4.48-26.65,13.95.25,2.24.25,4.49.25,6.73v78.21h-34.87v-70.74c0-19.18-8.47-28.15-20.92-28.15-8.72,0-18.18,4.48-26.41,13.7v85.19h-34.87V57.79h34.87v9.71c10.46-8.22,23.17-12.7,36.12-12.7,16.19,0,29.39,6.73,37.61,19.43,12.95-12.95,28.65-19.43,44.59-19.43,27.4,0,45.83,19.18,45.83,52.81Z"/>
  <path class="cls-1" d="m853.3,21.17c0-11.46,9.47-21.17,21.67-21.17s21.42,9.71,21.42,21.17-9.71,21.42-21.42,21.42-21.67-9.46-21.67-21.42Zm3.99,36.62h34.87v128.03h-34.87V57.79Z"/>
  <path class="cls-1" d="m1042.61,108.85v76.97h-34.87v-69.49c0-19.68-9.22-29.39-24.16-29.39-9.71,0-19.68,4.23-27.9,13.45v85.44h-34.87V57.79h34.87v9.71c10.46-8.47,23.66-12.7,37.37-12.7,29.39,0,49.57,19.43,49.57,54.05Z"/>
  <path class="cls-1" d="m1195.04,130.77h-97.89c2.99,18.68,15.69,28.4,35.37,28.4,13.2,0,24.66-4.49,34.87-16.19l24.41,18.43c-14.45,18.18-34.87,27.4-59.78,27.4-42.34,0-69.49-27.15-69.49-66.01s28.4-68,69.24-68c37.37,0,64.01,24.16,64.01,63.52,0,4.23-.25,8.22-.74,12.45Zm-96.4-24.66h62.27c-3.24-15.19-13.95-22.42-29.64-22.42s-27.9,7.72-32.63,22.42Z"/>
  <g>
    <path class="cls-1" d="m147.46,98.64c0,54.3-37.11,87.18-89.67,87.18H0V11.46h57.79c52.81,0,89.67,32.63,89.67,87.18Zm-37.86,0c0-34.13-19.93-52.31-52.81-52.31h-20.17v104.62h20.17c32.88,0,52.81-18.18,52.81-52.31Z"/>
    <path class="cls-1" d="m0,250.57h36.62v174.36H0v-174.36Z"/>
  </g>
  <path class="cls-1" d="m189.3,347.96v76.97h-34.87v-69.5c0-19.68-9.22-29.39-24.16-29.39-9.71,0-19.68,4.24-27.9,13.45v85.44h-34.87v-128.03h34.87v9.71c10.46-8.47,23.66-12.71,37.37-12.71,29.39,0,49.57,19.43,49.57,54.05Z"/>
  <path class="cls-1" d="m338.74,296.9l-50.81,128.03h-38.86l-51.06-128.03h38.61l31.88,85.43,31.64-85.43h38.61Z"/>
  <path class="cls-1" d="m474.25,369.88h-97.89c2.99,18.68,15.69,28.4,35.37,28.4,13.2,0,24.66-4.48,34.87-16.19l24.41,18.43c-14.45,18.18-34.87,27.4-59.78,27.4-42.34,0-69.49-27.15-69.49-66s28.4-68,69.24-68c37.37,0,64.01,24.16,64.01,63.52,0,4.23-.25,8.22-.74,12.45Zm-96.4-24.66h62.27c-3.24-15.19-13.95-22.42-29.64-22.42s-27.9,7.72-32.63,22.42Z"/>
  <path class="cls-1" d="m488.43,410.23l16.69-26.41c13.95,9.71,28.9,14.7,41.6,14.7s18.68-4.48,18.68-10.96c0-4.73-3.74-8.47-15.19-11.21l-21.92-5.23c-25.9-5.98-36.36-17.44-36.36-35.62,0-24.91,19.93-41.6,53.05-41.6,20.92,0,40.35,6.73,53.55,17.69l-17.19,24.91c-12.95-8.97-25.65-13.45-37.61-13.45s-17.19,4.49-17.19,10.21c0,4.73,3.49,7.73,14.94,10.46l21.92,5.23c26.15,6.23,36.86,17.94,36.86,36.62,0,25.66-19.68,42.34-54.3,42.34-22.17,0-43.34-6.72-57.54-17.68Z"/>
  <path class="cls-1" d="m710.36,421.94c-8.72,3.48-19.18,5.48-30.14,5.48-31.38,0-47.57-15.94-47.57-51.06v-48.82h-24.66v-30.64h24.66v-29.89h34.87v29.89h38.11v30.64h-38.11v44.59c0,16.19,6.23,23.17,20.17,23.17,4.98,0,11.46-1,18.43-3.24l4.24,29.89Z"/>
  <path class="cls-1" d="m926.81,346.72v78.21h-34.88v-70.74c0-19.18-8.22-28.15-20.67-28.15-8.97,0-18.43,4.49-26.65,13.95.25,2.24.25,4.48.25,6.72v78.21h-34.87v-70.74c0-19.18-8.47-28.15-20.92-28.15-8.72,0-18.18,4.49-26.41,13.7v85.19h-34.87v-128.03h34.87v9.71c10.46-8.22,23.17-12.71,36.12-12.71,16.19,0,29.39,6.73,37.61,19.43,12.95-12.95,28.65-19.43,44.59-19.43,27.4,0,45.83,19.18,45.83,52.81Z"/>
  <path class="cls-1" d="m1079.48,369.88h-97.89c2.99,18.68,15.69,28.4,35.37,28.4,13.2,0,24.66-4.48,34.87-16.19l24.41,18.43c-14.45,18.18-34.87,27.4-59.78,27.4-42.34,0-69.49-27.15-69.49-66s28.4-68,69.24-68c37.37,0,64.01,24.16,64.01,63.52,0,4.23-.25,8.22-.74,12.45Zm-96.4-24.66h62.27c-3.24-15.19-13.95-22.42-29.64-22.42s-27.9,7.72-32.63,22.42Z"/>
  <path class="cls-1" d="m1223.45,347.96v76.97h-34.88v-69.5c0-19.68-9.21-29.39-24.16-29.39-9.71,0-19.68,4.24-27.9,13.45v85.44h-34.87v-128.03h34.87v9.71c10.46-8.47,23.66-12.71,37.37-12.71,29.39,0,49.57,19.43,49.57,54.05Z"/>
  <path class="cls-1" d="m1338.27,421.94c-8.72,3.48-19.18,5.48-30.14,5.48-31.38,0-47.57-15.94-47.57-51.06v-48.82h-24.66v-30.64h24.66v-29.89h34.87v29.89h38.11v30.64h-38.11v44.59c0,16.19,6.23,23.17,20.17,23.17,4.98,0,11.46-1,18.43-3.24l4.24,29.89Z"/>
  <path class="cls-1" d="m1348.23,410.23l16.69-26.41c13.95,9.71,28.9,14.7,41.6,14.7s18.68-4.48,18.68-10.96c0-4.73-3.74-8.47-15.19-11.21l-21.92-5.23c-25.9-5.98-36.36-17.44-36.36-35.62,0-24.91,19.93-41.6,53.05-41.6,20.92,0,40.35,6.73,53.55,17.69l-17.19,24.91c-12.95-8.97-25.65-13.45-37.61-13.45s-17.19,4.49-17.19,10.21c0,4.73,3.49,7.73,14.94,10.46l21.92,5.23c26.15,6.23,36.86,17.94,36.86,36.62,0,25.66-19.68,42.34-54.3,42.34-22.17,0-43.34-6.72-57.54-17.68Z"/>
</svg>