<svg xmlns="http://www.w3.org/2000/svg" xmlns:xlink="http://www.w3.org/1999/xlink" xmlns:serif="http://www.serif.com/" width="100%" height="100%" viewBox="0 0 348 51" xml:space="preserve" style="fill-rule:evenodd;clip-rule:evenodd;stroke-linejoin:round;stroke-miterlimit:2;">    <g id="Artboard1" transform="matrix(1,0,0,1,-546.269,-424.652)">        <rect x="546.269" y="424.652" width="347.462" height="50.697" style="fill:none;"></rect>        <g id="investujeme.svg" transform="matrix(0.823795,0,0,0.823795,720.269,450.652)">            <g transform="matrix(1,0,0,1,-153.865,-18.34)">                <clipPath id="_clip1">                    <rect x="0" y="0" width="307.73" height="36.68"></rect>                </clipPath>                <g clip-path="url(#_clip1)">                    <path d="M15.61,7.71L15.61,36.34L13.42,36.34L13.42,0.34L16.681,0.34L38.24,28.1L38.24,0.34L40.44,0.34L40.44,36.34L37.51,36.34L15.61,7.71ZM43.02,0.34L48.68,0.34L60.44,32.24L72,0.34L74.24,0.34L61.17,36.34L56.24,36.34L43.02,0.34ZM76.87,0.34L101.06,0.34L101.06,2.34L82.29,2.34L82.29,16.83L101.02,16.83L101.02,18.83L82.29,18.83L82.29,34.34L101.02,34.34L101.02,36.34L76.87,36.34L76.87,0.34ZM103.25,35.66L103.25,33.9C106.683,34.297 110.135,34.507 113.59,34.53C120.721,34.53 124.59,32.53 124.59,27.53C124.59,25.291 123.96,23.921 122.441,22.9C120.92,21.88 118.541,21.14 114.931,20.02C111.321,18.9 108.54,18.02 106.641,16.55C104.741,15.08 103.641,12.94 103.641,9.82C103.641,2.161 109.84,-0.03 117.641,-0.03C120.817,0.029 123.984,0.34 127.111,0.9L127.111,2.68C124.229,2.301 121.328,2.091 118.421,2.05C112.421,2.05 108.671,3.66 108.671,8.34C108.671,10.49 109.301,11.8 110.671,12.73C112.041,13.661 114.571,14.581 118.031,15.56C121.691,16.56 124.421,17.56 126.371,18.93C128.521,20.54 129.591,22.68 129.591,26.05C129.591,33.85 122.331,36.58 114.421,36.58C110.664,36.564 106.915,36.24 103.211,35.609L103.25,35.66ZM128.77,0.34L157.99,0.34L157.99,2.34L146.09,2.34L146.09,36.34L140.681,36.34L140.681,2.24L128.771,2.24L128.771,0.34L128.77,0.34ZM160.28,22.68L160.28,0.34L165.8,0.34L165.8,22.68C165.8,30.83 168.09,34.19 175.5,34.19C183.4,34.19 185.99,30.93 185.99,22.68L185.99,0.34L188.28,0.34L188.28,22.53C188.28,32.68 184.43,36.68 174.48,36.68C164.919,36.68 160.28,32.34 160.28,22.63L160.28,22.68ZM189.28,35.68L189.28,33.9C191.668,34.288 194.081,34.498 196.5,34.53C200.98,34.53 203.23,32.97 203.23,28.051L203.23,0.34L208.64,0.34L208.64,26.97C208.64,34.68 203.86,36.58 197.91,36.58C195.003,36.572 192.104,36.264 189.26,35.66L189.28,35.68ZM214.04,0.34L238.23,0.34L238.23,2.34L219.5,2.34L219.5,16.83L238.23,16.83L238.23,18.83L219.5,18.83L219.5,34.34L238.23,34.34L238.23,36.34L214.04,36.34L214.04,0.34ZM244.23,6.14L244.23,36.34L242.129,36.34L242.129,0.34L247.64,0.34L260.129,31.34L272.569,0.34L277.939,0.34L277.939,36.34L272.569,36.34L272.569,5.9L260.419,36.34L256.47,36.34L244.23,6.14ZM283.539,0.34L307.74,0.34L307.74,2.34L289.01,2.34L289.01,16.83L307.739,16.83L307.739,18.83L289.01,18.83L289.01,34.34L307.739,34.34L307.739,36.34L283.539,36.34L283.539,0.34ZM0,0.34L0,2.34L2,2.34L2,36.34L7.42,36.34L7.42,0.34L0,0.34Z" style="fill:rgb(213,213,213);fill-rule:nonzero;"></path>                </g>            </g>        </g>    </g></svg>