<svg xmlns="http://www.w3.org/2000/svg" xmlns:xlink="http://www.w3.org/1999/xlink" xmlns:serif="http://www.serif.com/" width="100%" height="100%" viewBox="0 0 348 51" xml:space="preserve" style="fill-rule:evenodd;clip-rule:evenodd;stroke-linejoin:round;stroke-miterlimit:2;">    <g id="Artboard1" transform="matrix(1,0,0,1,-546.269,-424.652)">        <rect x="546.269" y="424.652" width="347.462" height="50.697" style="fill:none;"></rect>        <clipPath id="_clip1">            <rect x="546.269" y="424.652" width="347.462" height="50.697"></rect>        </clipPath>        <g clip-path="url(#_clip1)">            <g transform="matrix(1,0,0,1,0.26882,5.75889)">                <g id="logo_hospodarske_noviny.svg" transform="matrix(1,0,0,1,720.269,443.686)">                    <g transform="matrix(1,0,0,1,-174,-15)">                        <path d="M168.194,22.621L170.299,27.375C173.762,28.258 176.275,26.764 176.275,24.183C176.275,19.497 166.496,20.652 166.496,13.046C166.496,8.564 169.891,6.662 173.762,6.662C176.275,6.662 178.041,7.205 179.671,8.088L179.671,13.182L177.973,13.182L176.003,8.903C172.88,8.224 170.842,9.243 170.842,11.823C170.842,16.577 180.689,15.491 180.689,22.961C180.689,27.443 177.09,29.752 172.336,29.752C170.299,29.752 168.397,29.209 166.428,28.122L166.428,22.621L168.194,22.621ZM47.922,22.621L47.922,28.122C49.891,29.209 51.793,29.752 53.83,29.752C58.584,29.752 62.183,27.443 62.183,22.961C62.183,15.423 52.336,16.577 52.336,11.823C52.336,9.243 54.306,8.224 57.498,8.903L59.467,13.182L61.165,13.182L61.165,8.088C59.535,7.205 57.769,6.662 55.256,6.662C51.385,6.662 47.99,8.564 47.99,13.046C47.99,20.652 57.769,19.565 57.769,24.183C57.769,26.764 55.324,28.258 51.793,27.375L49.688,22.621L47.922,22.621ZM290.163,9.718L286.632,21.127L285.749,24.455L285.613,24.455L284.662,21.127L280.995,9.582L283.168,8.632L283.168,7.07L274.068,7.07L274.068,8.632L275.97,9.582L282.217,29.413L286.156,29.413L292.472,9.718L294.645,8.632L294.645,7.07L287.514,7.07L287.514,8.632L290.163,9.718ZM233.66,5.168L233.525,26.628L231.012,27.715L231.012,29.277L239.705,29.277L239.705,27.715L236.309,26.628L236.173,12.706L236.105,9.243L236.241,9.175L237.939,12.095L249.212,29.345L251.861,29.345L251.929,5.304L254.102,4.217L254.102,2.655L246.02,2.655L246.02,4.217L249.144,5.304L249.348,16.849L249.416,20.312L249.28,20.38L247.582,17.46L237.599,2.655L231.012,2.655L231.012,4.217L233.66,5.168ZM329.416,9.379L335.189,20.312L335.189,26.968L332.54,27.783L332.54,29.345L342.591,29.345L342.591,27.783L339.942,26.968L339.942,19.837L345.307,9.718L347.209,8.632L347.209,7.07L340.282,7.07L340.282,8.632L342.795,9.718L340.35,14.812L339.127,17.528L338.992,17.528L337.701,14.744L334.917,9.379L337.022,8.564L337.022,7.002L327.854,7.002L327.854,8.564L329.416,9.379ZM309.042,9.514L308.907,26.628L307.005,27.715L307.005,29.277L314.136,29.277L314.136,27.715L311.284,26.628L311.148,16.306L311.08,12.842L311.216,12.774L312.913,15.694L322.014,29.345L324.391,29.345L324.526,9.65L326.428,8.564L326.428,7.002L319.297,7.002L319.297,8.564L322.149,9.65L322.285,17.664L322.353,21.127L322.217,21.195L320.52,18.275L313.049,7.002L307.073,7.002L307.073,8.564L309.042,9.514ZM298.312,9.379L298.312,26.968L296.139,27.783L296.139,29.345L305.239,29.345L305.239,27.783L303.066,26.968L303.066,9.379L305.239,8.564L305.239,7.002L296.139,7.002L296.139,8.564L298.312,9.379ZM274.611,18.207C274.611,25.677 269.857,29.752 264.968,29.752C260.078,29.752 255.324,25.677 255.324,18.207C255.324,10.737 260.078,6.662 264.968,6.662C269.857,6.662 274.611,10.669 274.611,18.207ZM269.586,18.207C269.586,11.959 267.481,8.767 264.968,8.767C262.387,8.767 260.35,11.959 260.35,18.207C260.35,24.455 262.455,27.647 264.968,27.647C267.548,27.647 269.586,24.387 269.586,18.207ZM218.109,1.161L212.88,1.161L210.231,5.1L210.978,5.915L218.516,2.112L218.109,1.161ZM204.934,27.783L204.934,29.345L221.504,29.345L221.504,22.554L219.807,22.554L217.973,27.172L211.861,27.172L211.861,19.09L217.565,19.701L217.565,16.374L211.861,16.985L211.861,9.243L217.565,9.243L219.263,13.521L220.961,13.521L220.961,7.002L204.934,7.002L204.934,8.564L207.107,9.379L207.107,26.968L204.934,27.783ZM185.307,9.379L185.307,26.968L183.134,27.783L183.134,29.345L192.234,29.345L192.234,27.783L190.061,26.968L190.061,21.127L191.759,19.158L196.513,26.968L194.747,27.783L194.747,29.345L203.644,29.345L203.644,27.783L202.149,27.036L195.019,15.491L200.18,9.582L202.285,8.632L202.285,7.07L195.019,7.07L195.019,8.632L196.92,9.582L192.099,15.491L190.197,18.071L190.061,18.003L190.061,9.379L192.234,8.564L192.234,7.002L183.134,7.002L183.134,8.564L185.307,9.379ZM148.635,0.618L147.82,1.365L151.827,5.643L155.494,5.643L159.501,1.365L158.618,0.618L153.796,2.587L148.635,0.618ZM164.866,27.783L164.866,29.345C163.779,29.616 163.236,29.752 162.421,29.752C155.969,29.752 157.396,19.565 153.593,19.565L152.302,19.565L152.302,26.968L154.815,27.783L154.815,29.345L145.375,29.345L145.375,27.783L147.548,26.968L147.548,9.379L145.036,8.564L145.036,7.002L155.155,7.002C158.89,7.002 161.742,8.699 161.742,12.706C161.742,15.694 159.84,17.664 156.852,18.411L156.852,18.547C162.285,19.565 161.402,27.647 164.866,27.783ZM157.056,13.114C157.056,10.465 155.902,9.243 153.796,9.243L152.302,9.243L152.302,17.392L153.389,17.392C155.63,17.392 157.056,15.898 157.056,13.114ZM139.806,1.161L134.577,1.161L131.929,5.1L132.676,5.915L140.214,2.112L139.806,1.161ZM144.085,27.783L144.085,29.345L134.985,29.345L134.985,27.783L137.226,26.968L135.8,22.35L129.416,22.35L128.058,26.764L130.638,27.715L130.638,29.277L123.508,29.277L123.508,27.715L125.681,26.764L131.997,6.866L135.936,6.866L142.251,26.9L144.085,27.783ZM135.121,20.177L133.491,15.151L132.608,11.823L132.472,11.823L131.589,15.151L130.027,20.177L135.121,20.177ZM123.644,17.868C123.644,25.066 119.637,29.345 113.864,29.345L104.221,29.345L104.221,27.783L106.394,26.968L106.394,9.379L104.221,8.564L104.221,7.002L113.864,7.002C119.637,7.002 123.644,10.601 123.644,17.868ZM118.618,17.868C118.618,12.027 116.377,9.175 112.846,9.175L111.148,9.175L111.148,27.104L112.846,27.104C116.309,27.172 118.618,23.708 118.618,17.868ZM102.455,18.207C102.455,25.677 97.701,29.752 92.812,29.752C87.922,29.752 83.168,25.677 83.168,18.207C83.168,10.737 87.922,6.662 92.812,6.662C97.701,6.662 102.455,10.669 102.455,18.207ZM97.43,18.207C97.43,11.959 95.324,8.767 92.812,8.767C90.231,8.767 88.194,11.959 88.194,18.207C88.194,24.455 90.299,27.647 92.812,27.647C95.392,27.647 97.43,24.387 97.43,18.207ZM71.487,20.788L71.487,26.968L74.34,27.783L74.34,29.345L64.56,29.345L64.56,27.783L66.734,26.968L66.734,9.379L64.56,8.564L64.56,7.002L74.34,7.002C78.278,7.002 81.267,8.971 81.267,13.793C81.267,18.547 78.143,20.788 74.068,20.788L71.487,20.788ZM71.419,18.615L72.71,18.615C75.087,18.615 76.309,17.053 76.309,13.861C76.309,10.669 75.155,9.243 72.914,9.243L71.419,9.243L71.419,18.615ZM45.545,18.207C45.545,25.677 40.791,29.752 35.902,29.752C31.012,29.752 26.258,25.677 26.258,18.207C26.258,10.737 31.012,6.662 35.902,6.662C40.723,6.662 45.545,10.669 45.545,18.207ZM40.52,18.207C40.52,11.959 38.414,8.767 35.902,8.767C33.321,8.767 31.284,11.959 31.284,18.207C31.284,24.455 33.389,27.647 35.902,27.647C38.414,27.647 40.52,24.387 40.52,18.207ZM0.655,29.345L10.706,29.345L10.706,27.783L8.194,26.968L8.194,16.917L17.565,16.917L17.565,27.036L15.053,27.783L15.053,29.345L25.104,29.345L25.104,27.783L22.591,26.968L22.591,5.032L25.104,4.217L25.104,2.655L15.053,2.655L15.053,4.217L17.565,5.032L17.565,14.404L8.194,14.404L8.194,5.032L10.706,4.217L10.706,2.655L0.655,2.655L0.655,4.217L3.168,5.032L3.168,26.968L0.655,27.783L0.655,29.345Z" style="fill:rgb(213,213,213);fill-rule:nonzero;"></path>                    </g>                    <g>                    </g>                </g>            </g>        </g>    </g></svg>