<svg xmlns="http://www.w3.org/2000/svg" xmlns:xlink="http://www.w3.org/1999/xlink" xmlns:serif="http://www.serif.com/" width="100%" height="100%" viewBox="0 0 348 51" xml:space="preserve" style="fill-rule:evenodd;clip-rule:evenodd;stroke-linejoin:round;stroke-miterlimit:2;">    <g id="Artboard1" transform="matrix(1,0,0,1,-546.269,-424.652)">        <rect x="546.269" y="424.652" width="347.462" height="50.697" style="fill:none;"></rect>        <g id="Seznam-Zpr&#xE1;vy.svg" serif:id="Seznam Zpr&#xE1;vy.svg" transform="matrix(0.302198,0,0,0.302198,720.269,450.652)">            <g transform="matrix(1,0,0,1,-494.21,-72.94)">                <clipPath id="_clip1">                    <rect x="0" y="0" width="988.42" height="145.88"></rect>                </clipPath>                <g clip-path="url(#_clip1)">                    <path d="M0,106.77L0,89.11L14.66,89.11C15.96,101.28 21.33,106.11 30.49,106.11C39.39,106.11 45.02,102.05 45.02,92.11C45.02,84.65 41.88,80.46 31.8,77.84L22.38,75.36C8.51,71.7 0.39,64.77 0.39,48.54C0.39,29.17 13.09,19.75 32.45,19.75C46.85,19.75 55.62,23.81 59.93,26.03L59.93,45L45.41,45C44.41,35.05 41.09,28.51 30.88,28.51C22.64,28.51 18.97,33.22 18.97,40.51C19,47 21.72,51.42 30.75,53.51L39.65,55.61C54.7,59.14 64.65,67.91 64.65,84.53C64.65,103.76 52.09,114.23 29.58,114.23C14.13,114.23 6,110.31 -0,106.77ZM132.56,97.61L135.83,103.24C128.5,110.57 119.73,114.1 107.56,114.1C86.88,114.1 74.85,101.15 74.85,78.64C74.85,56.39 87.85,43.57 107.43,43.57C128.89,43.57 137,56 137,76L137,82.15L97.75,82.15C98.27,96.02 102.85,101.91 115.15,101.91C121.211,101.871 127.178,100.398 132.56,97.61ZM97.88,72.61L116.07,72.61C116.07,56.91 113.84,52.2 107.69,52.2C101.54,52.2 98.79,56.92 97.88,72.62L97.88,72.61ZM202.05,112.4L146.05,112.4L146.05,104.16L179.15,53.91L168.55,53.91C159.66,53.91 157.69,56 156.25,65.81L147.88,65.81L147.88,45.27L203.76,45.27L203.76,53L169.86,103.9L179.42,103.9C190.15,103.9 192.5,103.38 196.3,92.39L204.41,92.39L202.05,112.4ZM282.09,97C282.09,104.46 283.4,106.16 289.68,106.16L289.68,112.44L253.17,112.44L253.17,106.16C259.58,106.16 260.89,104.46 260.89,97.16L260.89,69.16C260.89,61.16 257.75,58.56 252.38,58.56C248.034,58.618 243.822,60.085 240.38,62.74L240.38,97.09C240.38,104.42 241.69,106.09 248.1,106.09L248.1,112.37L211.42,112.37L211.42,106.09C217.84,106.09 219.15,104.39 219.15,96.93L219.15,66.08C219.15,56.52 217.97,55.21 211.69,54.95L211.69,48.8L233.8,43.57L235.8,43.57C238.036,47.182 239.424,51.254 239.86,55.48C245.49,48.93 252.55,43.7 262.86,43.7C273.59,43.7 282.1,49.98 282.1,63.98L282.09,97ZM361.38,103.76L361.38,109.65C358.51,111.48 353.27,113.19 346.99,113.19C339.14,113.19 334.3,109.65 333.12,104.19C331.02,109.03 325.4,114.13 314.93,114.13C303.41,114.13 294.12,108.5 294.12,94.76C294.12,79.32 305.25,72.65 325.79,72.65C327.36,72.65 330.89,72.78 332.6,72.91L332.6,66.91C332.6,57.1 330.11,52.91 323.7,52.91C317.02,52.91 315.19,57.75 314.27,64.91L298.57,64.91L298.57,51C307.475,46.12 317.465,43.555 327.62,43.54C342.8,43.54 353.79,50.21 353.79,65.54C353.79,69.47 353.27,80.33 353.27,92.24C353.27,102.06 354.84,103.63 361.38,103.76ZM327.75,80.47C320.16,80.47 315.85,84.27 315.85,91.86C315.85,98.79 318.59,101.02 322.91,101.02C326.311,100.954 329.55,99.54 331.91,97.09L332.3,80.47L327.75,80.47ZM456.12,43.7C466.72,43.7 475.23,49.98 475.23,63.98L475.23,97.09C475.23,104.55 476.54,106.09 482.82,106.25L482.82,112.4L447,112.4L447,106.25C453.28,106.25 454.07,104.55 454.07,97.25L454.07,69.09C454.07,61.09 451.07,58.49 446.22,58.49C441.37,58.49 438.1,60.49 435.22,62.41L435.22,97.22C435.22,104.55 436,106.12 442.15,106.22L442.15,112.37L406.95,112.37L406.95,106.22C413.36,106.22 414.02,104.52 414.02,97.22L414.02,69.09C414.02,61.09 411.02,58.49 406.3,58.49C401.3,58.49 398.05,60.58 395.04,62.49L395.04,97.22C395.04,104.55 395.7,106.22 402.11,106.22L402.11,112.37L366.11,112.37L366.11,106.22C372.52,106.09 373.83,104.52 373.83,97.06L373.83,66.06C373.83,56.5 372.66,55.19 366.37,54.93L366.37,48.8L388.49,43.57L390.49,43.57C392.587,47.081 393.884,51.011 394.29,55.08C399.91,48.02 406.59,43.7 416.14,43.7C423.825,43.565 430.811,48.294 433.54,55.48C439.11,48.28 446.57,43.7 456.12,43.7ZM542.35,103.11L558.35,103.11C568.43,103.11 571.7,98.79 574.35,87.01L585,87.01L583.56,112.4L517.35,112.4L517.35,105.07L560.28,30.35L545.75,30.35C536.98,30.35 534.37,34.93 531.75,45.14L520.63,45.14L521.63,21.32L584.84,21.32L584.84,28.65L542.35,103.11ZM639.18,43.7C655.02,43.7 665.48,54.56 665.48,78.38C665.48,103.89 652.14,113.97 634.34,113.97C628.97,113.97 623.74,112.53 620.34,108.47L620.34,122.61C620.34,130.07 621.65,131.77 628.19,131.77L628.19,138.05L591.42,138.05L591.42,131.77C597.83,131.77 599.14,130.07 599.14,122.61L599.14,66.08C599.14,56.52 597.96,55.21 591.68,54.95L591.68,48.8L613.79,43.57L615.79,43.57C617.865,46.948 619.16,50.748 619.58,54.69C623.622,47.743 631.145,43.525 639.18,43.7ZM631.33,57.7C627.211,57.619 623.234,59.228 620.33,62.15L620.33,98.79C623.08,101.93 626.61,102.98 630.4,102.98C637.86,102.98 642.97,98.53 642.97,80.73C643,62.67 638.53,57.7 631.33,57.7ZM721.23,43.57C722.969,43.587 724.693,43.895 726.33,44.48L722.4,65.81C719.868,64.982 717.214,64.586 714.55,64.64C704.74,64.64 702.25,67.64 702.25,77.2L702.25,97C702.25,104.46 703.82,106.16 712.46,106.16L712.46,112.44L673.33,112.44L673.33,106.16C679.74,106.16 681.05,104.46 681.05,97L681.05,66.08C681.05,56.52 679.87,55.21 673.59,54.95L673.59,48.8L695.71,43.57L697.71,43.57C700.443,48.883 701.963,54.738 702.16,60.71C705,48.93 714,43.57 721.23,43.57ZM796.86,103.76L796.86,109.65C793.98,111.48 788.74,113.19 782.46,113.19C774.61,113.19 769.77,109.65 768.59,104.19C766.5,109.03 760.87,114.13 750.4,114.13C738.89,114.13 729.6,108.5 729.6,94.76C729.6,79.32 740.72,72.65 761.26,72.65C762.83,72.65 766.37,72.78 768.07,72.91L768.07,66.91C768.07,57.1 765.58,52.91 759.17,52.91C752.5,52.91 750.66,57.75 749.75,64.91L734,64.91L734,51C742.909,46.12 752.902,43.554 763.06,43.54C778.23,43.54 789.23,50.21 789.23,65.54C789.23,69.47 788.7,80.33 788.7,92.24C788.74,102.06 790.31,103.63 796.86,103.76ZM746.57,31.61L769.91,5.19L781.58,20.48L750.8,36.16L746.57,31.61ZM763.23,80.47C755.64,80.47 751.32,84.27 751.32,91.86C751.32,98.79 754.07,101.02 758.38,101.02C761.781,100.954 765.02,99.54 767.38,97.09L767.78,80.47L763.23,80.47ZM841.22,45.27L841.22,51.68C846.45,51.68 848.81,53.12 848.81,56.26C848.799,57.328 848.62,58.388 848.28,59.4L840.43,84.27C839.348,87.525 838.473,90.845 837.81,94.21L837,94.21C836.528,90.83 835.738,87.502 834.64,84.27L826.14,59.27C825.659,58.29 825.39,57.22 825.35,56.13C825.35,53.38 827.35,51.68 832.68,51.68L832.68,45.27L795.68,45.27L795.68,51.68C800,52.34 801.44,53.38 803.79,59.53L824.47,113.05L841,113.05L860.37,59.53C862.6,53.38 864.69,51.68 869.14,51.68L869.14,45.27L841.22,45.27Z" style="fill:rgb(213,213,213);fill-rule:nonzero;"></path>                    <path d="M914.89,45.27L914.89,51.68C920.77,51.94 922.89,52.47 922.89,55.21C922.876,56.193 922.697,57.167 922.36,58.09L913.73,86.49C912.42,90.55 911.24,95 911.24,96.04L910.46,96.04C909.961,92.73 909.26,89.454 908.36,86.23L899.36,58.09C899.009,57.124 898.79,56.115 898.71,55.09C898.71,52.87 900.54,51.95 906.43,51.69L906.43,45.27L869.09,45.27L869.09,51.68C873.37,51.68 875.23,53.78 877.46,59.8L887.54,87.41C892.12,100.1 893.69,105.07 895.39,111.88L903.63,111.22C898.92,120.78 888.84,123.92 877.07,125.88L884.4,139.36C900.62,137.13 909.13,126.8 914.75,111.48L934,59.53C936.23,53.38 937.8,52.34 943,51.68L943,45.27L914.89,45.27Z" style="fill:rgb(213,213,213);fill-rule:nonzero;"></path>                    <g transform="matrix(-1,-7.65714e-16,7.65714e-16,-1,1962.5,145.87)">                        <rect x="974.09" y="0" width="14.33" height="145.88" style="fill:rgb(213,213,213);fill-rule:nonzero;"></rect>                    </g>                </g>            </g>        </g>    </g></svg>