<svg xmlns="http://www.w3.org/2000/svg" xmlns:xlink="http://www.w3.org/1999/xlink" xmlns:serif="http://www.serif.com/" width="100%" height="100%" viewBox="0 0 348 51" xml:space="preserve" style="fill-rule:evenodd;clip-rule:evenodd;stroke-linejoin:round;stroke-miterlimit:2;">    <g id="Artboard1" transform="matrix(1,0,0,1,-546.269,-424.652)">        <rect x="546.269" y="424.652" width="347.462" height="50.697" style="fill:none;"></rect>        <clipPath id="_clip1">            <rect x="546.269" y="424.652" width="347.462" height="50.697"></rect>        </clipPath>        <g clip-path="url(#_clip1)">            <g transform="matrix(0.488391,0,0,0.488391,368.627,232.753)">                <g transform="matrix(3.25397,0,0,3.25397,546.269,394.255)">                    <path d="M6.701,15.142L6.701,31.375L0,31.375L0,0L6.701,2.432L6.701,9.41L21.07,9.41L21.07,31.377L14.37,31.377L14.37,15.144L6.699,15.144L6.701,15.142Z" style="fill:rgb(213,213,213);fill-rule:nonzero;"></path>                </g>                <g transform="matrix(3.25397,0,0,3.25397,546.269,394.255)">                    <path d="M32.287,15.14L32.287,31.375L25.586,31.375L25.586,9.408L39.163,9.408L39.163,15.14L32.287,15.14Z" style="fill:rgb(213,213,213);fill-rule:nonzero;"></path>                </g>                <g transform="matrix(3.25397,0,0,3.25397,546.269,394.255)">                    <path d="M52.168,8.885C58.603,8.885 64.07,13.786 64.07,20.393C64.07,26.999 58.605,31.901 52.168,31.901C45.731,31.901 40.223,26.999 40.223,20.393C40.223,13.786 45.733,8.885 52.168,8.885ZM52.168,26.169C55.385,26.169 57.81,23.674 57.81,20.393C57.81,17.111 55.385,14.616 52.168,14.616C48.95,14.616 46.481,17.111 46.481,20.393C46.481,23.674 48.905,26.169 52.168,26.169Z" style="fill:rgb(213,213,213);fill-rule:nonzero;"></path>                </g>                <g transform="matrix(3.25397,0,0,3.25397,546.269,394.255)">                    <path d="M65.127,9.41L68.476,9.41L68.476,2.278L75.177,2.278L75.177,9.41L79.628,9.41L79.628,15.142L75.177,15.142L75.177,31.375L68.476,31.375L68.476,15.142L65.127,15.142L65.127,9.41Z" style="fill:rgb(213,213,213);fill-rule:nonzero;"></path>                </g>                <g transform="matrix(3.25397,0,0,3.25397,546.269,394.255)">                    <path d="M84.758,6.903C85.039,4.305 86.971,2.109 89.929,2.109C92.671,2.109 94.601,3.81 94.601,6.19C94.601,7.984 93.354,9.438 92.233,10.922L91.111,12.315L94.88,12.315L94.88,15.191L84.879,15.191L89.614,9.224C90.392,8.172 90.984,7.398 90.984,6.564C90.984,5.914 90.58,5.42 89.862,5.42C88.989,5.42 88.553,6.193 88.553,6.905L84.752,6.905L84.758,6.903Z" style="fill:rgb(213,213,213);fill-rule:nonzero;"></path>                </g>                <g transform="matrix(3.25397,0,0,3.25397,546.269,394.255)">                    <path d="M101.455,15.191L101.455,12.315L95.381,12.315L95.381,9.717L100.77,2.327L104.601,2.327L104.601,9.625L106.781,9.625L106.781,12.315L104.601,12.315L104.601,15.191L101.455,15.191ZM101.455,9.625L101.455,5.48L98.557,9.625L101.455,9.625Z" style="fill:rgb(213,213,213);fill-rule:nonzero;"></path>                </g>            </g>        </g>    </g></svg>