<svg xmlns="http://www.w3.org/2000/svg" xmlns:xlink="http://www.w3.org/1999/xlink" xmlns:serif="http://www.serif.com/" width="100%" height="100%" viewBox="0 0 348 51" xml:space="preserve" style="fill-rule:evenodd;clip-rule:evenodd;stroke-linejoin:round;stroke-miterlimit:2;">    <g id="Artboard1" transform="matrix(1,0,0,1,-546.269,-424.652)">        <rect x="546.269" y="424.652" width="347.462" height="50.697" style="fill:none;"></rect>        <g id="forbes.svg" transform="matrix(1.47006,0,0,1.47006,720.269,450.652)">            <g transform="matrix(1,0,0,1,-50,-13)">                <clipPath id="_clip1">                    <rect x="0" y="0" width="100" height="26"></rect>                </clipPath>                <g clip-path="url(#_clip1)">                    <g id="Vrstva_x0020_1">                        <path d="M99.18,12.72L98.27,12.98C97.39,9.88 95.94,8.55 93.87,8.55C92.42,8.55 91.4,9.55 91.4,11.14C91.4,12.65 92.6,13.46 95.83,14.83C98.81,15.97 100.05,17.37 100.05,19.81C100.05,23.54 97.25,25.87 92.64,25.87C90.42,25.87 87.91,25.35 86.5,24.76L86.31,19.59L87.19,19.4C88.49,22.95 90.16,24.28 92.35,24.28C94.23,24.28 95.22,22.91 95.22,21.51C95.22,20.11 94.45,19.29 91.51,18.19C88.71,17.23 86.79,15.97 86.79,12.87C86.79,9.81 89.37,7.22 93.76,7.22C95.83,7.22 97.72,7.59 98.96,8.18L99.18,12.72ZM80.21,14.35C80.32,11.91 79.85,8.4 77.92,8.4C75.96,8.4 74.87,11.69 74.83,14.49L80.21,14.35ZM78.39,7.22C83.23,7.22 85.55,10.91 85.59,15.75L74.72,15.75C74.69,20.03 76.87,23.28 80.94,23.28C82.72,23.28 83.73,22.76 84.82,21.95L85.33,22.54C84.13,24.24 81.66,25.87 78.36,25.87C73.05,25.87 69.38,22.06 69.38,16.71C69.38,11.87 72.4,7.22 78.39,7.22ZM62.73,16.19C62.63,12.35 61.28,9.33 58.7,9.33C58.08,9.33 57.61,9.44 56.88,9.7C56.88,15.82 56.96,22.76 57.1,24.43C57.36,24.54 57.97,24.61 58.41,24.61C60.92,24.61 62.73,20.92 62.73,16.19ZM68.11,15.9C68.11,21.95 64.44,25.87 58.23,25.87C56.01,25.87 53.72,25.5 51.73,25.02C51.91,22.58 51.91,7.52 51.73,4.67C51.54,3.2 51.14,2.5 50.05,2.35L49.33,2.27L49.33,1.61L56.99,0.13C56.96,1.39 56.88,4.67 56.88,8.55C58.23,7.85 59.46,7.44 61.14,7.44C65.13,7.44 68.11,10.99 68.11,15.9ZM48.6,12.61C46.24,10.99 43.7,11.69 43.19,12.61C42.97,15.45 43.01,19.81 43.22,22.06C43.33,23.54 43.73,24.17 44.82,24.28L46.28,24.43L46.28,25.39L35.45,25.39L35.45,24.43L36.28,24.28C37.34,24.17 37.7,23.54 37.77,22.06C38.03,19.66 38.1,14.64 37.77,11.87C37.7,10.29 37.34,9.7 36.28,9.55L35.45,9.44L35.45,8.77L43.19,7.22L43.08,11.36C44.9,7.07 48.49,6.56 50.45,7.7L48.6,12.61ZM23.21,16.56C23.21,21.07 24.37,24.76 26.73,24.76C29.27,24.76 30,21.14 30,16.56C30,11.98 28.87,8.4 26.47,8.4C23.93,8.4 23.21,11.91 23.21,16.56ZM35.49,16.49C35.49,21.66 32.22,25.87 26.37,25.87C20.63,25.87 17.72,21.88 17.72,16.64C17.72,11.5 20.99,7.22 26.84,7.22C32.58,7.22 35.49,11.25 35.49,16.49ZM20.44,7.59L19.25,7.96C18.23,4.34 16.45,2.27 13.36,2.27L9.33,2.27C9.11,4.67 9,8.4 9.11,12.43L11.8,12.28C13.61,12.28 14.38,10.91 14.81,8.92L15.83,8.92L15.83,17.3L14.81,17.3C14.38,15.27 13.61,13.9 11.8,13.79L9.11,13.76C9.11,16.75 9.14,19.29 9.33,20.84C9.51,23.06 10.09,24.06 11.65,24.28L13.1,24.43L13.1,25.39L-0.05,25.39L-0.05,24.43L1.04,24.28C2.57,24.06 3.19,23.06 3.37,20.84C3.66,17.23 3.73,9.51 3.37,5.23C3.19,2.94 2.57,2.02 1.04,1.83L-0.05,1.65L-0.05,0.65L20.41,0.65L20.44,7.59Z" style="fill:rgb(213,213,213);"></path>                    </g>                </g>            </g>        </g>    </g></svg>