<svg width="79" height="48" viewBox="0 0 79 48" fill="none" xmlns="http://www.w3.org/2000/svg">
  <path d="m43.817 4-9.462 4.58V44h9.462V4Zm2.925 33.988C50.422 42.498 55.856 44 62.518 44c9.582 0 16.478-5.376 16.478-13.703 0-8.326-5.26-13.008-15.076-13.008-2.513 0-4.618.288-6.545 1.04l.291-6.072h17.88V4.682H50.129l-.994 20.526 5.317.752c1.753-1.1 4.209-1.907 6.952-1.907 5.377 0 8.007 2.023 8.007 6.244 0 3.933-2.686 6.072-7.89 6.072-4.031 0-7.304-1.1-9.643-3.47l-5.142 5.089h.007Zm-16.354-6.011V28.39c0-7.979-4.5-14.454-14.843-14.454C5.203 13.937 0 20.352 0 29.375s5.959 14.627 16.305 14.627c6.019 0 10.225-1.504 13.206-4.222l-4.032-5.436c-2.104 1.735-4.848 2.542-8.472 2.542-5.2 0-7.595-1.503-8.237-4.913h21.62l-.003.004ZM8.706 25.845c0-3.122 2.57-5.26 6.779-5.26 4.21 0 6.484 1.675 6.484 5.26H8.706Z" fill="#EF4028"/>
</svg>
